<svg xmlns="http://www.w3.org/2000/svg" xmlns:xlink="http://www.w3.org/1999/xlink" width="500" zoomAndPan="magnify" viewBox="0 0 375 374.999991" height="500" preserveAspectRatio="xMidYMid meet" version="1.0"><defs><clipPath id="393802464c"><path d="M 37.5 126 L 337.5 126 L 337.5 308.4375 L 37.5 308.4375 Z M 37.5 126 " clip-rule="nonzero"/></clipPath><clipPath id="c7736be51d"><path d="M 153 66.9375 L 337.5 66.9375 L 337.5 107 L 153 107 Z M 153 66.9375 " clip-rule="nonzero"/></clipPath><clipPath id="25e5ea2976"><path d="M 226 156 L 337.5 156 L 337.5 196 L 226 196 Z M 226 156 " clip-rule="nonzero"/></clipPath></defs><g clip-path="url(#393802464c)"><path fill="#000000" d="M 270.796875 268.371094 C 268.082031 268.382812 266.414062 267.703125 265.132812 265.15625 C 262.929688 260.746094 260.347656 256.539062 257.875 252.277344 C 234.199219 211.265625 210.488281 170.257812 186.867188 129.226562 C 185.683594 127.175781 184.394531 126.351562 182.046875 126.375 C 170.132812 126.464844 158.222656 126.554688 146.3125 126.320312 C 142.648438 126.253906 140.734375 127.589844 138.976562 130.683594 C 126.6875 152.324219 114.242188 173.863281 101.808594 195.414062 C 81.035156 231.449219 60.242188 267.460938 39.46875 303.492188 C 38.78125 304.683594 38.269531 305.976562 37.488281 307.609375 L 82.160156 307.609375 C 116.96875 247.65625 153.480469 184.761719 161.742188 170.535156 L 162.308594 169.554688 C 162.875 168.574219 163.242188 167.941406 163.386719 167.683594 C 166.292969 172.738281 168.566406 176.667969 170.835938 180.609375 C 194.746094 222.042969 218.679688 263.472656 242.523438 304.949219 C 243.78125 307.132812 245.164062 308 247.621094 308 C 249.59375 308 251.5625 307.988281 253.535156 307.988281 C 281.152344 307.945312 308.769531 307.933594 336.398438 308.023438 C 336.777344 308.023438 337.121094 308.011719 337.445312 307.980469 L 337.445312 268.359375 C 336.953125 268.351562 336.410156 268.339844 335.753906 268.339844 C 314.101562 268.328125 292.449219 268.273438 270.796875 268.371094 Z M 270.796875 268.371094 " fill-opacity="1" fill-rule="nonzero"/></g><g clip-path="url(#c7736be51d)"><path fill="#000000" d="M 335.742188 67.019531 C 312.0625 67.011719 288.375 67.019531 264.699219 67.011719 C 236.570312 67.011719 208.4375 67.042969 180.320312 66.945312 C 177.226562 66.933594 175.289062 67.722656 173.707031 70.605469 C 168.855469 79.445312 163.632812 88.09375 158.601562 96.84375 C 156.945312 99.714844 155.417969 102.664062 153.316406 106.527344 C 156.976562 106.527344 159.605469 106.527344 162.21875 106.527344 C 220.160156 106.527344 278.101562 106.503906 336.03125 106.582031 C 336.554688 106.582031 337.019531 106.5625 337.445312 106.515625 L 337.445312 67.03125 C 336.953125 67.019531 336.398438 67.019531 335.742188 67.019531 Z M 335.742188 67.019531 " fill-opacity="1" fill-rule="nonzero"/></g><g clip-path="url(#25e5ea2976)"><path fill="#000000" d="M 229.878906 156.410156 C 228.742188 156.410156 227.609375 156.585938 226.214844 156.710938 C 226.515625 157.710938 226.574219 158.324219 226.863281 158.8125 C 233.585938 170.457031 240.265625 182.132812 247.175781 193.667969 C 247.902344 194.871094 250.058594 195.828125 251.5625 195.835938 C 280.183594 195.960938 308.8125 195.894531 337.433594 195.972656 L 337.433594 156.34375 C 301.589844 156.464844 265.734375 156.410156 229.878906 156.410156 Z M 229.878906 156.410156 " fill-opacity="1" fill-rule="nonzero"/></g></svg>